<?xml version="1.0" encoding="utf-8"?>
<!-- Generator: Adobe Illustrator 28.1.0, SVG Export Plug-In . SVG Version: 6.00 Build 0)  -->
<svg version="1.1" id="Layer_1" xmlns="http://www.w3.org/2000/svg" xmlns:xlink="http://www.w3.org/1999/xlink" x="0px" y="0px"
	 viewBox="0 0 24 24" style="enable-background:new 0 0 24 24;" xml:space="preserve">
<style type="text/css">
	.st0{fill:none;stroke:#1E1E1E;stroke-width:2;stroke-linecap:round;stroke-linejoin:round;stroke-miterlimit:10;}
	.st1{fill:none;stroke:#1E1E1E;stroke-width:1.7;stroke-linecap:round;stroke-linejoin:round;stroke-miterlimit:10;}
	.st2{fill:none;stroke:#1E1E1E;stroke-width:1.8;stroke-linecap:round;stroke-linejoin:round;stroke-miterlimit:10;}
	.st3{fill:#1E1E1E;}
	.st4{fill:#FFFFFF;stroke:#1E1E1E;stroke-width:2;stroke-linecap:round;stroke-linejoin:round;stroke-miterlimit:10;}
	.st5{fill:none;stroke:#1E1E1E;stroke-width:1.6;stroke-linecap:round;stroke-linejoin:round;stroke-miterlimit:10;}
	.st6{fill:none;stroke:#010101;stroke-width:2;stroke-linecap:round;stroke-linejoin:round;stroke-miterlimit:10;}
	.st7{fill:#010101;}
	.st8{fill:none;stroke:#010101;stroke-width:1.8;stroke-linecap:round;stroke-linejoin:round;stroke-miterlimit:10;}
</style>
<path class="st0" d="M10,14l-0.4,1.8c-0.4,1.9-2,3.2-3.9,3.2l-0.7,0c-2,0-3.8-1.5-4-3.5C1,14.4,1,13.2,1,12c0,0,6,0,6,0
	C9,12,10,14,10,14z"/>
<path class="st0" d="M10,14c0.4-0.6,1-1,2-1"/>
<path class="st0" d="M1,12l5.6-6.3c0.8-0.7,2-0.3,2.3,0.8"/>
<path class="st0" d="M14,14l0.4,1.8c0.4,1.9,2,3.2,3.9,3.2l0.7,0c2,0,3.8-1.5,4-3.5C23.1,14.4,23,13,23,12c0,0-6,0-6,0
	C15,12,14,14,14,14z"/>
<path class="st0" d="M14,14c-0.4-0.6-1-1-2-1"/>
<path class="st0" d="M23,12l-5.6-6.3c-0.8-0.7-2-0.3-2.3,0.8"/>
</svg>
